Normalized EMG Linear Envelopes
nRows=149
nColumns=4

endheader
time	 med_gas_r	  soleus_r	 tib_ant_r	
4.18723	  0.093533	  0.094462	  0.029914	
4.24973	  0.088230	  0.099155	  0.029623	
4.31222	  0.088696	  0.101042	  0.029461	
4.37472	  0.090839	  0.099816	  0.029578	
4.43722	  0.093202	  0.098251	  0.030255	
4.49971	  0.096901	  0.096994	  0.031197	
4.56221	  0.102868	  0.095206	  0.031530	
4.6247	  0.107963	  0.093661	  0.030858	
4.6872	  0.114537	  0.092369	  0.029725	
4.7497	  0.116496	  0.091505	  0.028858	
4.81219	  0.107877	  0.090297	  0.028833	
4.87469	  0.101802	  0.088500	  0.029248	
4.93718	  0.102653	  0.086688	  0.030161	
4.99968	  0.108796	  0.085813	  0.031397	
5.06218	  0.119186	  0.085390	  0.032208	
5.12467	  0.124943	  0.085982	  0.032385	
5.18717	  0.124298	  0.087801	  0.031702	
5.24966	  0.123457	  0.090589	  0.031138	
5.31216	  0.121406	  0.092645	  0.031323	
5.37466	  0.118815	  0.092063	  0.031934	
5.43715	  0.116257	  0.089220	  0.031981	
5.49965	  0.112099	  0.085098	  0.031268	
5.56214	  0.109023	  0.081551	  0.030024	
5.62464	  0.110706	  0.081067	  0.029440	
5.68714	  0.109039	  0.084240	  0.029593	
5.74963	  0.102768	  0.088688	  0.029583	
5.81213	  0.099963	  0.091819	  0.029202	
5.87462	  0.101983	  0.092843	  0.029002	
5.93712	  0.106597	  0.091613	  0.029330	
5.99962	  0.114394	  0.089621	  0.029756	
6.06211	  0.118980	  0.086943	  0.029579	
6.12461	  0.117328	  0.084316	  0.029036	
6.1871	  0.109963	  0.082674	  0.028622	
6.2496	  0.102049	  0.080619	  0.028313	
6.3121	  0.097179	  0.077746	  0.027451	
6.37459	  0.096952	  0.076395	  0.026155	
6.43709	  0.118133	  0.084513	  0.025927	
6.49958	  0.176329	  0.112689	  0.028907	
6.56208	  0.284979	  0.171808	  0.038188	
6.62458	  0.439929	  0.267784	  0.056969	
6.68707	  0.605024	  0.384284	  0.084414	
6.74957	  0.727315	  0.493435	  0.112118	
6.81206	  0.791646	  0.575515	  0.130966	
6.87456	  0.811488	  0.615480	  0.136171	
6.93706	  0.790929	  0.626019	  0.131159	
6.99955	  0.747746	  0.630819	  0.123937	
7.06205	  0.706385	  0.634620	  0.118473	
7.12454	  0.682962	  0.629575	  0.116773	
7.18704	  0.666044	  0.618907	  0.120288	
7.24954	  0.647892	  0.616455	  0.126954	
7.31203	  0.632113	  0.642697	  0.131756	
7.37453	  0.618124	  0.679567	  0.132186	
7.43702	  0.604450	  0.696372	  0.126257	
7.49952	  0.586695	  0.685101	  0.118342	
7.56202	  0.580939	  0.655629	  0.112490	
7.62451	  0.588513	  0.623532	  0.109841	
7.68701	  0.605907	  0.601013	  0.111869	
7.7495	  0.631016	  0.596340	  0.115874	
7.812	  0.650924	  0.605684	  0.116615	
7.8745	  0.652770	  0.627660	  0.114245	
7.93699	  0.641369	  0.657359	  0.112009	
7.99949	  0.610475	  0.669130	  0.110644	
8.06198	  0.569790	  0.653520	  0.108415	
8.12448	  0.534867	  0.620430	  0.104384	
8.18698	  0.519650	  0.594995	  0.099759	
8.24947	  0.512696	  0.593235	  0.095106	
8.31197	  0.511248	  0.615137	  0.091176	
8.37446	  0.522294	  0.653325	  0.089226	
8.43696	  0.534918	  0.696689	  0.089079	
8.49946	  0.542944	  0.717793	  0.089263	
8.56195	  0.546887	  0.701442	  0.087690	
8.62445	  0.558889	  0.658225	  0.085668	
8.68694	  0.574905	  0.625501	  0.084081	
8.74944	  0.585752	  0.639558	  0.084794	
8.81194	  0.588967	  0.702480	  0.088420	
8.87443	  0.584412	  0.781096	  0.094136	
8.93693	  0.571490	  0.837428	  0.099098	
8.99942	  0.550851	  0.874331	  0.101880	
9.06192	  0.527565	  0.888520	  0.103940	
9.12442	  0.516380	  0.876247	  0.106697	
9.18691	  0.527859	  0.845366	  0.110367	
9.24941	  0.556646	  0.800834	  0.112133	
9.3119	  0.579826	  0.762659	  0.109905	
9.3744	  0.575515	  0.748566	  0.105637	
9.4369	  0.551014	  0.752633	  0.101724	
9.49939	  0.518770	  0.770197	  0.098982	
9.56189	  0.499965	  0.784385	  0.098157	
9.62438	  0.497347	  0.793647	  0.097264	
9.68688	  0.511217	  0.803347	  0.095235	
9.74938	  0.532515	  0.809370	  0.093272	
9.81187	  0.544352	  0.794462	  0.092854	
9.87437	  0.548138	  0.762982	  0.092700	
9.93686	  0.550917	  0.745511	  0.092158	
9.99936	  0.563462	  0.764800	  0.092972	
10.0619	  0.587597	  0.812096	  0.096636	
10.1244	  0.612711	  0.859400	  0.099794	
10.1868	  0.625561	  0.890342	  0.098597	
10.2493	  0.611698	  0.891867	  0.096128	
10.3118	  0.595699	  0.869959	  0.095040	
10.3743	  0.599728	  0.857129	  0.093606	
10.4368	  0.606952	  0.863571	  0.092983	
10.4993	  0.588477	  0.883628	  0.094883	
10.5618	  0.550437	  0.875280	  0.098850	
10.6243	  0.509314	  0.846453	  0.102272	
10.6868	  0.495308	  0.828904	  0.105580	
10.7493	  0.520592	  0.830484	  0.109502	
10.8118	  0.565736	  0.857943	  0.113629	
10.8743	  0.612619	  0.899859	  0.116685	
10.9368	  0.649345	  0.944920	  0.116896	
10.9993	  0.657416	  0.986732	  0.114814	
11.0618	  0.645024	  0.999588	  0.111698	
11.1243	  0.634377	  0.986850	  0.108085	
11.1868	  0.627051	  0.970702	  0.104587	
11.2493	  0.612762	  0.960482	  0.102973	
11.3118	  0.598535	  0.948956	  0.104700	
11.3743	  0.590986	  0.946260	  0.109879	
11.4368	  0.595527	  0.955965	  0.113671	
11.4993	  0.614232	  0.940624	  0.111879	
11.5618	  0.640282	  0.907216	  0.106826	
11.6243	  0.654859	  0.883822	  0.102530	
11.6868	  0.649446	  0.882873	  0.098942	
11.7492	  0.653712	  0.896906	  0.096561	
11.8117	  0.665185	  0.918126	  0.095579	
11.8742	  0.677562	  0.932302	  0.095819	
11.9367	  0.694779	  0.944031	  0.097811	
11.9992	  0.693653	  0.941088	  0.100270	
12.0617	  0.670447	  0.901379	  0.100642	
12.1242	  0.630816	  0.831161	  0.097608	
12.1867	  0.576584	  0.761375	  0.092881	
12.2492	  0.520605	  0.681099	  0.086414	
12.3117	  0.479208	  0.590452	  0.078211	
12.3742	  0.456228	  0.515592	  0.071632	
12.4367	  0.443731	  0.458791	  0.068657	
12.4992	  0.427754	  0.401319	  0.069547	
12.5617	  0.402844	  0.339645	  0.071451	
12.6242	  0.387383	  0.281405	  0.072109	
12.6867	  0.378131	  0.218401	  0.070633	
12.7492	  0.369887	  0.171597	  0.068482	
12.8117	  0.371352	  0.147486	  0.066230	
12.8742	  0.377471	  0.131953	  0.063589	
12.9367	  0.377734	  0.118901	  0.062204	
12.9992	  0.358956	  0.110415	  0.061863	
13.0617	  0.332489	  0.105831	  0.061971	
13.1242	  0.312093	  0.106724	  0.063238	
13.1867	  0.294474	  0.111521	  0.063943	
13.2492	  0.292435	  0.115051	  0.060839	
13.3116	  0.303590	  0.115929	  0.054613	
13.3741	  0.300677	  0.114438	  0.047881	
13.4366	  0.284136	  0.112268	  0.042534	
